<svg width="40" height="40" viewBox="0 0 40 40" fill="none" xmlns="http://www.w3.org/2000/svg">
<path opacity="0.2" d="M20 5C17.0333 5 14.1332 5.87973 11.6665 7.52796C9.19972 9.17618 7.27713 11.5189 6.14181 14.2597C5.0065 17.0006 4.70945 20.0166 5.28823 22.9264C5.86701 25.8361 7.29562 28.5088 9.39341 30.6066C11.4912 32.7044 14.1639 34.133 17.0737 34.7118C19.9834 35.2906 22.9994 34.9935 25.7403 33.8582C28.4812 32.7229 30.8238 30.8003 32.4721 28.3336C34.1203 25.8668 35 22.9667 35 20C35 16.0218 33.4197 12.2064 30.6066 9.3934C27.7936 6.58035 23.9783 5 20 5V5ZM22.6563 22.6563L13.375 26.625L17.3438 17.3438L27.0469 12.9375L22.6563 22.6563Z" fill="#2DB24A"/>
<path d="M20 35C28.2843 35 35 28.2843 35 20C35 11.7157 28.2843 5 20 5C11.7157 5 5 11.7157 5 20C5 28.2843 11.7157 35 20 35Z" stroke="#2DB24A" stroke-width="2" stroke-miterlimit="10"/>
<path d="M22.6563 22.6563L27.0469 12.9375L17.3438 17.3437L13.375 26.625L22.6563 22.6563Z" stroke="#2DB24A" stroke-width="2" stroke-linecap="round" stroke-linejoin="round"/>
</svg>
