<svg width="40" height="40" viewBox="0 0 40 40" fill="none" xmlns="http://www.w3.org/2000/svg">
<path opacity="0.2" d="M24.4063 34.3438C22.9777 34.7779 21.493 34.999 20 35C17.0333 35 14.1332 34.1203 11.6665 32.4721C9.19972 30.8238 7.27713 28.4812 6.14181 25.7403C5.0065 22.9994 4.70945 19.9834 5.28823 17.0737C5.86701 14.1639 7.29562 11.4912 9.39341 9.39341C11.4912 7.29562 14.1639 5.86701 17.0737 5.28823C19.9834 4.70945 22.9994 5.0065 25.7403 6.14181C28.4812 7.27713 30.8238 9.19972 32.4721 11.6665C34.1203 14.1332 35 17.0333 35 20C34.999 21.493 34.7779 22.9777 34.3438 24.4063L24.4063 34.3438Z" fill="#2DB24A"/>
<path d="M24.4063 34.3438C22.9777 34.7779 21.493 34.999 20 35C17.0333 35 14.1332 34.1203 11.6665 32.4721C9.19972 30.8238 7.27713 28.4812 6.14181 25.7403C5.0065 22.9994 4.70945 19.9834 5.28823 17.0737C5.86701 14.1639 7.29562 11.4912 9.39341 9.39341C11.4912 7.29562 14.1639 5.86701 17.0737 5.28823C19.9834 4.70945 22.9994 5.0065 25.7403 6.14181C28.4812 7.27713 30.8238 9.19972 32.4721 11.6665C34.1203 14.1332 35 17.0333 35 20C34.999 21.493 34.7779 22.9777 34.3438 24.4063L24.4063 34.3438Z" stroke="#2DB24A" stroke-width="2" stroke-linecap="round" stroke-linejoin="round"/>
<path d="M14.375 16C14.8582 16 15.25 16.3918 15.25 16.875C15.25 17.3582 14.8582 17.75 14.375 17.75C13.8918 17.75 13.5 17.3582 13.5 16.875C13.5 16.3918 13.8918 16 14.375 16Z" fill="#2DB24A" stroke="#2DB24A" stroke-width="2"/>
<path d="M25.625 16C26.1082 16 26.5 16.3918 26.5 16.875C26.5 17.3582 26.1082 17.75 25.625 17.75C25.1418 17.75 24.75 17.3582 24.75 16.875C24.75 16.3918 25.1418 16 25.625 16Z" fill="#2DB24A" stroke="#2DB24A" stroke-width="2"/>
<path d="M26.5 23.75C25.8392 24.8884 24.891 25.8334 23.7503 26.4902C22.6095 27.147 21.3163 27.4927 20 27.4927C18.6837 27.4927 17.3905 27.147 16.2497 26.4902C15.109 25.8334 14.1608 24.8884 13.5 23.75" stroke="#2DB24A" stroke-width="2" stroke-linecap="round" stroke-linejoin="round"/>
</svg>
