<svg width="16" height="16" viewBox="0 0 16 16" fill="none" xmlns="http://www.w3.org/2000/svg">
<path fill-rule="evenodd" clip-rule="evenodd" d="M15.8842 7.99656C15.8842 3.64046 12.3529 0.109131 7.9968 0.109131C3.6407 0.109131 0.109375 3.64046 0.109375 7.99656C0.109375 12.3527 3.6407 15.884 7.9968 15.884C12.3529 15.884 15.8842 12.3527 15.8842 7.99656ZM7.9968 15.884C7.46633 15.884 6.94825 15.8312 6.44712 15.7314V9.72574H5.16077V7.58131H6.44712V6.29404C6.44712 4.54461 7.17332 3.50448 9.23687 3.50448H10.9548V5.64907H9.88095C9.07764 5.64907 9.02452 5.9486 9.02452 6.50786L9.02163 7.58115H10.9669L10.7392 9.72538H9.02163V15.8178C8.6818 15.8619 8.33948 15.884 7.9968 15.884Z" fill="#2DB24A"/>
</svg>
