<svg width="16" height="16" viewBox="0 0 16 16" fill="none" xmlns="http://www.w3.org/2000/svg">
<path d="M5.33375 8C5.33375 6.5273 6.52728 5.33312 7.99998 5.33312C9.47268 5.33312 10.6669 6.5273 10.6669 8C10.6669 9.4727 9.47268 10.6669 7.99998 10.6669C6.52728 10.6669 5.33375 9.4727 5.33375 8ZM3.89209 8C3.89209 10.2688 5.73119 12.1079 7.99998 12.1079C10.2688 12.1079 12.1079 10.2688 12.1079 8C12.1079 5.7312 10.2688 3.8921 7.99998 3.8921C5.73119 3.8921 3.89209 5.7312 3.89209 8ZM11.3105 3.72922C11.3104 3.91909 11.3667 4.10471 11.4721 4.26263C11.5775 4.42054 11.7274 4.54365 11.9028 4.61638C12.0782 4.68911 12.2712 4.7082 12.4574 4.67123C12.6436 4.63426 12.8147 4.5429 12.9491 4.40869C13.0834 4.27449 13.1749 4.10347 13.212 3.91726C13.2491 3.73106 13.2302 3.53802 13.1576 3.36258C13.085 3.18713 12.962 3.03715 12.8042 2.9316C12.6463 2.82605 12.4608 2.76968 12.2709 2.7696H12.2705C12.016 2.76972 11.7719 2.87085 11.5919 3.05077C11.4119 3.2307 11.3107 3.47471 11.3105 3.72922V3.72922ZM4.76799 14.5118C3.98802 14.4763 3.56409 14.3464 3.28236 14.2366C2.90886 14.0912 2.64236 13.918 2.36217 13.6382C2.08198 13.3584 1.90854 13.0922 1.76377 12.7187C1.65395 12.4371 1.52403 12.013 1.48857 11.233C1.44979 10.3898 1.44204 10.1364 1.44204 8.00006C1.44204 5.86368 1.45043 5.61107 1.48857 4.7671C1.52409 3.98714 1.65497 3.5639 1.76377 3.28147C1.90918 2.90797 2.08236 2.64147 2.36217 2.36128C2.64198 2.08109 2.90822 1.90765 3.28236 1.76288C3.56396 1.65306 3.98802 1.52314 4.76799 1.48768C5.61125 1.4489 5.86456 1.44115 7.99998 1.44115C10.1354 1.44115 10.389 1.44954 11.2329 1.48768C12.0129 1.5232 12.4361 1.65408 12.7186 1.76288C13.0921 1.90765 13.3586 2.08147 13.6388 2.36128C13.9189 2.64109 14.0917 2.90797 14.2372 3.28147C14.347 3.56307 14.4769 3.98714 14.5124 4.7671C14.5511 5.61107 14.5589 5.86368 14.5589 8.00006C14.5589 10.1364 14.5511 10.3891 14.5124 11.233C14.4768 12.013 14.3463 12.4369 14.2372 12.7187C14.0917 13.0922 13.9186 13.3587 13.6388 13.6382C13.3589 13.9178 13.0921 14.0912 12.7186 14.2366C12.437 14.3464 12.0129 14.4764 11.2329 14.5118C10.3897 14.5506 10.1364 14.5583 7.99998 14.5583C5.8636 14.5583 5.611 14.5506 4.76799 14.5118V14.5118ZM4.70175 0.048448C3.8501 0.087232 3.26815 0.222272 2.75993 0.420032C2.2336 0.624256 1.78803 0.89824 1.34278 1.34278C0.897534 1.78733 0.624255 2.2336 0.420031 2.75994C0.222272 3.26848 0.0872318 3.85011 0.0484479 4.70176C0.00902398 5.55475 0 5.82746 0 8C0 10.1725 0.00902398 10.4452 0.0484479 11.2982C0.0872318 12.15 0.222272 12.7315 0.420031 13.2401C0.624255 13.7661 0.897598 14.2129 1.34278 14.6572C1.78796 15.1016 2.2336 15.3752 2.75993 15.58C3.26911 15.7777 3.8501 15.9128 4.70175 15.9516C5.55519 15.9903 5.82744 16 7.99998 16C10.1725 16 10.4452 15.991 11.2982 15.9516C12.1499 15.9128 12.7315 15.7777 13.24 15.58C13.7661 15.3752 14.2119 15.1018 14.6572 14.6572C15.1024 14.2127 15.3751 13.7661 15.5799 13.2401C15.7777 12.7315 15.9134 12.1499 15.9515 11.2982C15.9903 10.4446 15.9993 10.1725 15.9993 8C15.9993 5.82746 15.9903 5.55475 15.9515 4.70176C15.9127 3.85005 15.7777 3.26816 15.5799 2.75994C15.3751 2.23392 15.1017 1.78803 14.6572 1.34278C14.2126 0.897536 13.7661 0.624256 13.2407 0.420032C12.7315 0.222272 12.1499 0.086592 11.2989 0.048448C10.4459 0.009664 10.1732 0 8.00062 0C5.82808 0 5.55519 0.009024 4.70175 0.048448Z" fill="#2DB24A"/>
</svg>
