<svg width="16" height="16" viewBox="0 0 16 16" fill="none" xmlns="http://www.w3.org/2000/svg">
<path d="M0 2.02146C0 1.50798 0.180185 1.08437 0.54054 0.75063C0.900896 0.416872 1.36937 0.25 1.94595 0.25C2.51223 0.25 2.97039 0.414299 3.32046 0.742928C3.68082 1.08182 3.861 1.52339 3.861 2.06767C3.861 2.5606 3.68598 2.97136 3.33591 3.29999C2.97555 3.63888 2.50193 3.80833 1.91506 3.80833H1.89961C1.33333 3.80833 0.875166 3.63888 0.525096 3.29999C0.175027 2.96111 0 2.53492 0 2.02146ZM0.200772 15.5V5.21009H3.62934V15.5H0.200772ZM5.52896 15.5H8.95753V9.75427C8.95753 9.39484 8.99872 9.11756 9.08108 8.92246C9.22522 8.57329 9.44401 8.27804 9.73745 8.03673C10.0309 7.79539 10.399 7.67473 10.8417 7.67473C11.9949 7.67473 12.5714 8.45006 12.5714 10.0007V15.5H16V9.60023C16 8.08037 15.6396 6.92764 14.9189 6.14203C14.1982 5.35643 13.2458 4.96363 12.0618 4.96363C10.7336 4.96363 9.69884 5.53357 8.95753 6.67347V6.70428H8.94208L8.95753 6.67347V5.21009H5.52896C5.54954 5.5387 5.55985 6.5605 5.55985 8.27549C5.55985 9.99046 5.54954 12.3986 5.52896 15.5Z" fill="#2DB24A"/>
</svg>
