<svg width="17" height="16" viewBox="0 0 17 16" fill="none" xmlns="http://www.w3.org/2000/svg">
<path d="M6.0075 14.5431C12.0609 14.5431 15.3712 9.5184 15.3712 5.16117C15.3712 5.01847 15.3683 4.87643 15.3619 4.73497C16.006 4.26799 16.5619 3.68979 17.0035 3.02749C16.4138 3.29016 15.7793 3.46694 15.1136 3.54665C15.7931 3.13844 16.3147 2.49264 16.5608 1.72286C15.9148 2.10683 15.208 2.37752 14.471 2.52324C13.8705 1.88231 13.0155 1.48145 12.0688 1.48145C10.2514 1.48145 8.77758 2.95813 8.77758 4.77837C8.77758 5.03715 8.80649 5.28878 8.86296 5.53023C6.12774 5.39233 3.70235 4.08022 2.07915 2.08509C1.78679 2.5883 1.63302 3.16021 1.63353 3.74241C1.63353 4.88642 2.21452 5.89631 3.09805 6.48715C2.57543 6.47116 2.06428 6.32972 1.60758 6.07473C1.60709 6.08858 1.60709 6.10206 1.60709 6.11686C1.60709 7.71374 2.74148 9.04704 4.24734 9.34915C3.96452 9.42633 3.67268 9.46534 3.37955 9.46517C3.16786 9.46517 2.96155 9.44431 2.76104 9.40574C3.18002 10.7159 4.39493 11.6693 5.83536 11.6959C4.70896 12.5805 3.29005 13.1074 1.7479 13.1074C1.48556 13.1076 1.22344 13.0923 0.962891 13.0617C2.41939 13.9971 4.14884 14.5429 6.00767 14.5429" fill="#2DB24A"/>
</svg>
